<svg width="161" height="40" viewBox="0 0 161 40" fill="none" xmlns="http://www.w3.org/2000/svg">
<path d="M60.3828 22.625C60.3828 22.3594 60.3411 22.125 60.2578 21.9219C60.1797 21.7135 60.0391 21.526 59.8359 21.3594C59.638 21.1927 59.362 21.0339 59.0078 20.8828C58.6589 20.7318 58.2161 20.5781 57.6797 20.4219C57.1172 20.2552 56.6094 20.0703 56.1562 19.8672C55.7031 19.6589 55.3151 19.4219 54.9922 19.1562C54.6693 18.8906 54.4219 18.5859 54.25 18.2422C54.0781 17.8984 53.9922 17.5052 53.9922 17.0625C53.9922 16.6198 54.0833 16.2109 54.2656 15.8359C54.4479 15.4609 54.7083 15.1354 55.0469 14.8594C55.3906 14.5781 55.7995 14.3594 56.2734 14.2031C56.7474 14.0469 57.276 13.9688 57.8594 13.9688C58.7135 13.9688 59.4375 14.1328 60.0312 14.4609C60.6302 14.7839 61.0859 15.2083 61.3984 15.7344C61.7109 16.2552 61.8672 16.8125 61.8672 17.4062H60.3672C60.3672 16.9792 60.276 16.6016 60.0938 16.2734C59.9115 15.9401 59.6354 15.6797 59.2656 15.4922C58.8958 15.2995 58.4271 15.2031 57.8594 15.2031C57.3229 15.2031 56.8802 15.2839 56.5312 15.4453C56.1823 15.6068 55.9219 15.8255 55.75 16.1016C55.5833 16.3776 55.5 16.6927 55.5 17.0469C55.5 17.2865 55.5495 17.5052 55.6484 17.7031C55.7526 17.8958 55.9115 18.0755 56.125 18.2422C56.3438 18.4089 56.6198 18.5625 56.9531 18.7031C57.2917 18.8438 57.6953 18.9792 58.1641 19.1094C58.8099 19.2917 59.3672 19.4948 59.8359 19.7188C60.3047 19.9427 60.6901 20.1953 60.9922 20.4766C61.2995 20.7526 61.526 21.0677 61.6719 21.4219C61.8229 21.7708 61.8984 22.1667 61.8984 22.6094C61.8984 23.0729 61.8047 23.4922 61.6172 23.8672C61.4297 24.2422 61.1615 24.5625 60.8125 24.8281C60.4635 25.0938 60.0443 25.2995 59.5547 25.4453C59.0703 25.5859 58.5286 25.6562 57.9297 25.6562C57.4036 25.6562 56.8854 25.5833 56.375 25.4375C55.8698 25.2917 55.4089 25.0729 54.9922 24.7812C54.5807 24.4896 54.25 24.1302 54 23.7031C53.7552 23.2708 53.6328 22.7708 53.6328 22.2031H55.1328C55.1328 22.5938 55.2083 22.9297 55.3594 23.2109C55.5104 23.487 55.7161 23.7161 55.9766 23.8984C56.2422 24.0807 56.5417 24.2161 56.875 24.3047C57.2135 24.388 57.5651 24.4297 57.9297 24.4297C58.4557 24.4297 58.901 24.3568 59.2656 24.2109C59.6302 24.0651 59.9062 23.8568 60.0938 23.5859C60.2865 23.3151 60.3828 22.9948 60.3828 22.625ZM65.1719 17.0469V25.5H63.7188V17.0469H65.1719ZM63.6094 14.8047C63.6094 14.5703 63.6797 14.3724 63.8203 14.2109C63.9661 14.0495 64.1797 13.9688 64.4609 13.9688C64.737 13.9688 64.9479 14.0495 65.0938 14.2109C65.2448 14.3724 65.3203 14.5703 65.3203 14.8047C65.3203 15.0286 65.2448 15.2214 65.0938 15.3828C64.9479 15.5391 64.737 15.6172 64.4609 15.6172C64.1797 15.6172 63.9661 15.5391 63.8203 15.3828C63.6797 15.2214 63.6094 15.0286 63.6094 14.8047ZM72.9688 17.0469H74.2812V25.3203C74.2812 26.0651 74.1302 26.7005 73.8281 27.2266C73.526 27.7526 73.1042 28.151 72.5625 28.4219C72.026 28.6979 71.4062 28.8359 70.7031 28.8359C70.4115 28.8359 70.0677 28.7891 69.6719 28.6953C69.2812 28.6068 68.8958 28.4531 68.5156 28.2344C68.1406 28.0208 67.8255 27.7318 67.5703 27.3672L68.3281 26.5078C68.6823 26.9349 69.0521 27.2318 69.4375 27.3984C69.8281 27.5651 70.2135 27.6484 70.5938 27.6484C71.0521 27.6484 71.4479 27.5625 71.7812 27.3906C72.1146 27.2188 72.3724 26.9635 72.5547 26.625C72.7422 26.2917 72.8359 25.8802 72.8359 25.3906V18.9062L72.9688 17.0469ZM67.1484 21.3672V21.2031C67.1484 20.5573 67.224 19.9714 67.375 19.4453C67.5312 18.9141 67.7526 18.4583 68.0391 18.0781C68.3307 17.6979 68.6823 17.4062 69.0938 17.2031C69.5052 16.9948 69.9688 16.8906 70.4844 16.8906C71.0156 16.8906 71.4792 16.9844 71.875 17.1719C72.276 17.3542 72.6146 17.6224 72.8906 17.9766C73.1719 18.3255 73.3932 18.7474 73.5547 19.2422C73.7161 19.737 73.8281 20.2969 73.8906 20.9219V21.6406C73.8333 22.2604 73.7214 22.8177 73.5547 23.3125C73.3932 23.8073 73.1719 24.2292 72.8906 24.5781C72.6146 24.9271 72.276 25.1953 71.875 25.3828C71.474 25.5651 71.0052 25.6562 70.4688 25.6562C69.9635 25.6562 69.5052 25.5495 69.0938 25.3359C68.6875 25.1224 68.3385 24.8229 68.0469 24.4375C67.7552 24.0521 67.5312 23.599 67.375 23.0781C67.224 22.5521 67.1484 21.9818 67.1484 21.3672ZM68.5938 21.2031V21.3672C68.5938 21.7891 68.6354 22.1849 68.7188 22.5547C68.8073 22.9245 68.9401 23.25 69.1172 23.5312C69.2995 23.8125 69.5312 24.0339 69.8125 24.1953C70.0938 24.3516 70.4297 24.4297 70.8203 24.4297C71.2995 24.4297 71.6953 24.3281 72.0078 24.125C72.3203 23.9219 72.5677 23.6536 72.75 23.3203C72.9375 22.987 73.0833 22.625 73.1875 22.2344V20.3516C73.1302 20.0651 73.0417 19.7891 72.9219 19.5234C72.8073 19.2526 72.6562 19.013 72.4688 18.8047C72.2865 18.5911 72.0599 18.4219 71.7891 18.2969C71.5182 18.1719 71.2005 18.1094 70.8359 18.1094C70.4401 18.1094 70.099 18.1927 69.8125 18.3594C69.5312 18.5208 69.2995 18.7448 69.1172 19.0312C68.9401 19.3125 68.8073 19.6406 68.7188 20.0156C68.6354 20.3854 68.5938 20.7812 68.5938 21.2031ZM77.9219 18.8516V25.5H76.4766V17.0469H77.8438L77.9219 18.8516ZM77.5781 20.9531L76.9766 20.9297C76.9818 20.3516 77.0677 19.8177 77.2344 19.3281C77.401 18.8333 77.6354 18.4036 77.9375 18.0391C78.2396 17.6745 78.599 17.3932 79.0156 17.1953C79.4375 16.9922 79.9036 16.8906 80.4141 16.8906C80.8307 16.8906 81.2057 16.9479 81.5391 17.0625C81.8724 17.1719 82.1562 17.349 82.3906 17.5938C82.6302 17.8385 82.8125 18.1562 82.9375 18.5469C83.0625 18.9323 83.125 19.4036 83.125 19.9609V25.5H81.6719V19.9453C81.6719 19.5026 81.6068 19.1484 81.4766 18.8828C81.3464 18.612 81.1562 18.4167 80.9062 18.2969C80.6562 18.1719 80.349 18.1094 79.9844 18.1094C79.625 18.1094 79.2969 18.1849 79 18.3359C78.7083 18.487 78.4557 18.6953 78.2422 18.9609C78.0339 19.2266 77.8698 19.5312 77.75 19.875C77.6354 20.2135 77.5781 20.5729 77.5781 20.9531ZM96.0156 14.125H97.5156V21.8203C97.5156 22.6745 97.3255 23.3854 96.9453 23.9531C96.5651 24.5208 96.0599 24.9479 95.4297 25.2344C94.8047 25.5156 94.125 25.6562 93.3906 25.6562C92.6198 25.6562 91.9219 25.5156 91.2969 25.2344C90.6771 24.9479 90.1849 24.5208 89.8203 23.9531C89.4609 23.3854 89.2812 22.6745 89.2812 21.8203V14.125H90.7734V21.8203C90.7734 22.4141 90.8828 22.9036 91.1016 23.2891C91.3203 23.6745 91.625 23.9609 92.0156 24.1484C92.4115 24.3359 92.8698 24.4297 93.3906 24.4297C93.9167 24.4297 94.375 24.3359 94.7656 24.1484C95.1615 23.9609 95.4688 23.6745 95.6875 23.2891C95.9062 22.9036 96.0156 22.4141 96.0156 21.8203V14.125ZM101.109 18.6719V28.75H99.6562V17.0469H100.984L101.109 18.6719ZM106.805 21.2031V21.3672C106.805 21.9818 106.732 22.5521 106.586 23.0781C106.44 23.599 106.227 24.0521 105.945 24.4375C105.669 24.8229 105.328 25.1224 104.922 25.3359C104.516 25.5495 104.049 25.6562 103.523 25.6562C102.987 25.6562 102.513 25.5677 102.102 25.3906C101.69 25.2135 101.341 24.9557 101.055 24.6172C100.768 24.2786 100.539 23.8724 100.367 23.3984C100.201 22.9245 100.086 22.3906 100.023 21.7969V20.9219C100.086 20.2969 100.203 19.737 100.375 19.2422C100.547 18.7474 100.773 18.3255 101.055 17.9766C101.341 17.6224 101.688 17.3542 102.094 17.1719C102.5 16.9844 102.969 16.8906 103.5 16.8906C104.031 16.8906 104.503 16.9948 104.914 17.2031C105.326 17.4062 105.672 17.6979 105.953 18.0781C106.234 18.4583 106.445 18.9141 106.586 19.4453C106.732 19.9714 106.805 20.5573 106.805 21.2031ZM105.352 21.3672V21.2031C105.352 20.7812 105.307 20.3854 105.219 20.0156C105.13 19.6406 104.992 19.3125 104.805 19.0312C104.622 18.7448 104.388 18.5208 104.102 18.3594C103.815 18.1927 103.474 18.1094 103.078 18.1094C102.714 18.1094 102.396 18.1719 102.125 18.2969C101.859 18.4219 101.633 18.5911 101.445 18.8047C101.258 19.013 101.104 19.2526 100.984 19.5234C100.87 19.7891 100.784 20.0651 100.727 20.3516V22.375C100.831 22.7396 100.977 23.0833 101.164 23.4062C101.352 23.724 101.602 23.9818 101.914 24.1797C102.227 24.3724 102.62 24.4688 103.094 24.4688C103.484 24.4688 103.82 24.388 104.102 24.2266C104.388 24.0599 104.622 23.8333 104.805 23.5469C104.992 23.2604 105.13 22.9323 105.219 22.5625C105.307 22.1875 105.352 21.7891 105.352 21.3672Z" fill="#8794BA"/>
<rect x="0.5" y="0.5" width="160" height="39" rx="19.5" stroke="#465B95"/>
</svg>
