<svg width="119" height="17" viewBox="0 0 119 17" fill="none" xmlns="http://www.w3.org/2000/svg">
<path d="M10.8084 13.0561H5.60223L4.69305 16.0001H0.634216L6.414 0.240967H9.98578L15.8089 16.0001H11.7284L10.8084 13.0561ZM6.51141 10.1229H9.89919L8.19989 4.65698L6.51141 10.1229Z" fill="white"/>
<path d="M30.1284 16.0001H26.351L20.7661 6.19393V16.0001H16.967V0.240967H20.7661L26.3402 10.0471V0.240967H30.1284V16.0001Z" fill="white"/>
<path d="M41.6772 13.0561H36.471L35.5619 16.0001H31.503L37.2828 0.240967H40.8546L46.6777 16.0001H42.5972L41.6772 13.0561ZM37.3802 10.1229H40.768L39.0687 4.65698L37.3802 10.1229Z" fill="white"/>
<path d="M51.6349 13.0777H58.2481V16.0001H47.8358V0.240967H51.6349V13.0777Z" fill="white"/>
<path d="M62.5883 7.08146L65.489 0.240967H69.5912L64.5149 10.3394V16.0001H60.6617V10.3394L55.5963 0.240967H59.6768L62.5883 7.08146Z" fill="white"/>
<path d="M83.3046 3.17415H78.5747V16.0001H74.7757V3.17415H70.1323V0.240967H83.3046V3.17415Z" fill="white"/>
<path d="M88.9653 16.0001H85.1771V0.240967H88.9653V16.0001Z" fill="white"/>
<path d="M104.356 10.6641C104.306 11.7609 104.01 12.7314 103.469 13.5756C102.928 14.4126 102.166 15.062 101.185 15.5238C100.211 15.9857 99.0962 16.2166 97.8407 16.2166C95.7698 16.2166 94.139 15.5419 92.9484 14.1925C91.7578 12.8432 91.1625 10.9383 91.1625 8.4777V7.69841C91.1625 6.15424 91.4295 4.8049 91.9635 3.65039C92.5047 2.48866 93.2803 1.59391 94.2905 0.966146C95.3007 0.331163 96.4697 0.0136719 97.7974 0.0136719C99.7095 0.0136719 101.246 0.518772 102.408 1.52897C103.57 2.53196 104.23 3.91737 104.389 5.68522H100.601C100.572 4.72553 100.33 4.03643 99.8755 3.61792C99.4209 3.19941 98.7282 2.99015 97.7974 2.99015C96.8521 2.99015 96.1594 3.34372 95.7193 4.05086C95.2791 4.758 95.0482 5.88726 95.0265 7.43864V8.55347C95.0265 10.2347 95.2358 11.4361 95.6543 12.1577C96.08 12.8793 96.8088 13.2401 97.8407 13.2401C98.7138 13.2401 99.3812 13.0344 99.843 12.6231C100.305 12.2118 100.55 11.5588 100.579 10.6641H104.356Z" fill="white"/>
<path d="M114.282 11.8114C114.282 11.2558 114.083 10.8228 113.686 10.5125C113.297 10.2023 112.608 9.88116 111.619 9.54924C110.631 9.21731 109.822 8.89621 109.195 8.58594C107.153 7.58295 106.132 6.20475 106.132 4.45133C106.132 3.57823 106.384 2.80976 106.889 2.14591C107.401 1.47485 108.123 0.955322 109.054 0.587321C109.985 0.212104 111.031 0.0244954 112.193 0.0244954C113.326 0.0244954 114.339 0.226535 115.234 0.630615C116.136 1.0347 116.836 1.61195 117.334 2.36239C117.832 3.1056 118.081 3.95706 118.081 4.91675H114.292C114.292 4.27455 114.094 3.77667 113.697 3.4231C113.308 3.06953 112.777 2.89274 112.106 2.89274C111.428 2.89274 110.89 3.04427 110.493 3.34733C110.104 3.64318 109.909 4.022 109.909 4.48381C109.909 4.88789 110.125 5.25589 110.558 5.58781C110.991 5.91252 111.753 6.25166 112.842 6.60522C113.932 6.95158 114.826 7.3268 115.526 7.73088C117.229 8.71221 118.081 10.0652 118.081 11.7897C118.081 13.1679 117.561 14.2503 116.522 15.0368C115.483 15.8233 114.058 16.2166 112.247 16.2166C110.97 16.2166 109.812 15.9893 108.772 15.5347C107.741 15.0729 106.961 14.4451 106.435 13.6514C105.915 12.8504 105.655 11.9304 105.655 10.8914H109.465C109.465 11.7356 109.682 12.3598 110.115 12.7638C110.555 13.1607 111.266 13.3591 112.247 13.3591C112.875 13.3591 113.369 13.2256 113.73 12.9587C114.098 12.6845 114.282 12.302 114.282 11.8114Z" fill="white"/>
</svg>
